<?xml version="1.0"?>
<svg xmlns="http://www.w3.org/2000/svg" xmlns:xlink="http://www.w3.org/1999/xlink" xmlns:svgjs="http://svgjs.com/svgjs" version="1.1" width="512px" height="512px" x="0" y="0" viewBox="0 0 24 24" style="enable-background:new 0 0 512 512" xml:space="preserve"><g><path d="M8,7H22.5a1.5,1.5,0,0,0,0-3H8A1.5,1.5,0,0,0,8,7Z" fill="#eab305" data-original="#000000"/><path d="M22.5,11H8a1.5,1.5,0,0,0,0,3H22.5a1.5,1.5,0,0,0,0-3Z" fill="#eab305" data-original="#000000"/><path d="M22.5,18H8a1.5,1.5,0,0,0,0,3H22.5a1.5,1.5,0,0,0,0-3Z" fill="#eab305" data-original="#000000"/><circle cx="2.5" cy="5.5" r="2.5" fill="#eab305" data-original="#000000"/><circle cx="2.5" cy="12" r="2.5" fill="#eab305" data-original="#000000"/><circle cx="2.5" cy="19" r="2.5" fill="#eab305" data-original="#000000"/></g></svg>
